<svg xmlns="http://www.w3.org/2000/svg" width="24" height="24" viewBox="0 0 24 24">
  <g id="FB" transform="translate(-416 -2223)">
    <rect id="Rectangle_790" data-name="Rectangle 790" width="24" height="24" transform="translate(416 2223)" fill="none"/>
    <g id="linkedin-svgrepo-com" transform="translate(414 2221)">
      <path id="Subtraction_1" data-name="Subtraction 1" d="M4786-2194a9.935,9.935,0,0,1-7.071-2.929A9.934,9.934,0,0,1,4776-2204a10.011,10.011,0,0,1,10-10,10.011,10.011,0,0,1,10,10A10.011,10.011,0,0,1,4786-2194Zm2.6-11.179c.747,0,1.141.543,1.141,1.572v4.018H4792v-4.3a3.41,3.41,0,0,0-.741-2.356,2.416,2.416,0,0,0-1.853-.756,2.659,2.659,0,0,0-2.24,1.156h-.043l-.1-.993h-1.958c.03.632.059,1.4.059,2.313v4.937h2.253v-4.181a1.574,1.574,0,0,1,.09-.563A1.207,1.207,0,0,1,4788.6-2205.18Zm-7.543-1.662v7.251h2.253v-7.251Zm1.125-3.158a1.219,1.219,0,0,0-.885.341,1.1,1.1,0,0,0-.3.8,1.074,1.074,0,0,0,.3.785,1.2,1.2,0,0,0,.87.342,1.135,1.135,0,0,0,1.216-1.127A1.127,1.127,0,0,0,4782.186-2210Z" transform="translate(-4772 2218)" fill="#fff"/>
    </g>
  </g>
</svg>
