<svg xmlns="http://www.w3.org/2000/svg" width="24" height="24" viewBox="0 0 24 24">
  <g id="FB" transform="translate(-416 -2223)">
    <rect id="Rectangle_790" data-name="Rectangle 790" width="24" height="24" transform="translate(416 2223)" fill="none"/>
    <g id="youtube-svgrepo-com" transform="translate(418 2160.607)">
      <path id="Path_222" data-name="Path 222" d="M15.846,67.393H4.154A4.154,4.154,0,0,0,0,71.547v5.845a4.154,4.154,0,0,0,4.154,4.154H15.846A4.154,4.154,0,0,0,20,77.392V71.547A4.154,4.154,0,0,0,15.846,67.393Zm-2.809,7.361L7.568,77.362a.22.22,0,0,1-.314-.2v-5.38a.22.22,0,0,1,.319-.2l5.469,2.771A.22.22,0,0,1,13.037,74.754Z" fill="#fff"/>
    </g>
  </g>
</svg>
